solid switchbox
facet normal 0.0 -1.0 0.0
  outer loop
    vertex 63.00000000000001 -40.0 3.962982
    vertex 12.999999999999998 -40.0 -1.0370179999999998
    vertex 63.00000000000001 -40.0 -1.0370179999999998
  endloop
endfacet
facet normal 0.0 -1.0 0.0
  outer loop
    vertex 12.999999999999998 -40.0 -1.0370179999999998
    vertex 63.00000000000001 -40.0 3.962982
    vertex 12.999999999999998 -40.0 3.962982
  endloop
endfacet
facet normal -1.0 0.0 0.0
  outer loop
    vertex 12.999999999999998 -40.0 3.962982
    vertex 12.999999999999998 -39.0 2.9629819999999993
    vertex 12.999999999999998 -40.0 -1.0370179999999998
  endloop
endfacet
facet normal -1.0 0.0 0.0
  outer loop
    vertex 12.999999999999998 -39.0 2.9629819999999993
    vertex 12.999999999999998 -40.0 3.962982
    vertex 12.999999999999998 -34.0 3.962982
  endloop
endfacet
facet normal -1.0 0.0 0.0
  outer loop
    vertex 12.999999999999998 -39.0 2.9629819999999993
    vertex 12.999999999999998 -34.0 3.962982
    vertex 12.999999999999998 -35.0 2.9629819999999993
  endloop
endfacet
facet normal -1.0 0.0 0.0
  outer loop
    vertex 12.999999999999998 -35.0 2.9629819999999993
    vertex 12.999999999999998 -34.0 3.962982
    vertex 12.999999999999998 -35.0 -1.0370180000000002
  endloop
endfacet
facet normal -1.0 0.0 0.0
  outer loop
    vertex 12.999999999999998 -35.0 -1.0370180000000002
    vertex 12.999999999999998 -34.0 3.962982
    vertex 12.999999999999998 -34.0 -1.0370180000000002
  endloop
endfacet
facet normal -1.0 0.0 0.0
  outer loop
    vertex 12.999999999999998 -39.0 -1.0370179999999998
    vertex 12.999999999999998 -40.0 -1.0370179999999998
    vertex 12.999999999999998 -39.0 2.9629819999999993
  endloop
endfacet
facet normal 1.0 0.0 0.0
  outer loop
    vertex 63.00000000000001 -34.0 -1.0370180000000002
    vertex 63.00000000000001 -35.0 2.9629819999999993
    vertex 63.00000000000001 -35.0 -1.0370180000000002
  endloop
endfacet
facet normal 1.0 0.0 0.0
  outer loop
    vertex 63.00000000000001 -39.0 -1.0370179999999998
    vertex 63.00000000000001 -40.0 3.962982
    vertex 63.00000000000001 -40.0 -1.0370179999999998
  endloop
endfacet
facet normal 1.0 0.0 0.0
  outer loop
    vertex 63.00000000000001 -40.0 3.962982
    vertex 63.00000000000001 -39.0 -1.0370179999999998
    vertex 63.00000000000001 -39.0 2.9629819999999993
  endloop
endfacet
facet normal 1.0 0.0 0.0
  outer loop
    vertex 63.00000000000001 -40.0 3.962982
    vertex 63.00000000000001 -39.0 2.9629819999999993
    vertex 63.00000000000001 -34.0 3.962982
  endloop
endfacet
facet normal 1.0 0.0 0.0
  outer loop
    vertex 63.00000000000001 -34.0 3.962982
    vertex 63.00000000000001 -39.0 2.9629819999999993
    vertex 63.00000000000001 -35.0 2.9629819999999993
  endloop
endfacet
facet normal 1.0 0.0 0.0
  outer loop
    vertex 63.00000000000001 -34.0 3.962982
    vertex 63.00000000000001 -35.0 2.9629819999999993
    vertex 63.00000000000001 -34.0 -1.0370180000000002
  endloop
endfacet
facet normal 0.0 1.0 0.0
  outer loop
    vertex 12.999999999999998 -34.0 3.962982
    vertex 63.00000000000001 -34.0 -1.0370180000000002
    vertex 12.999999999999998 -34.0 -1.0370180000000002
  endloop
endfacet
facet normal 0.0 1.0 0.0
  outer loop
    vertex 63.00000000000001 -34.0 -1.0370180000000002
    vertex 12.999999999999998 -34.0 3.962982
    vertex 63.00000000000001 -34.0 3.962982
  endloop
endfacet
facet normal -0.0 -0.0 -1.0
  outer loop
    vertex 63.00000000000001 -34.0 -1.0370180000000002
    vertex 12.999999999999998 -35.0 -1.0370180000000002
    vertex 12.999999999999998 -34.0 -1.0370180000000002
  endloop
endfacet
facet normal -0.0 -0.0 -1.0
  outer loop
    vertex 12.999999999999998 -35.0 -1.0370180000000002
    vertex 63.00000000000001 -34.0 -1.0370180000000002
    vertex 63.00000000000001 -35.0 -1.0370180000000002
  endloop
endfacet
facet normal 0.0 -1.0 0.0
  outer loop
    vertex 63.00000000000001 -35.0 2.9629819999999993
    vertex 12.999999999999998 -35.0 -1.0370180000000002
    vertex 63.00000000000001 -35.0 -1.0370180000000002
  endloop
endfacet
facet normal 0.0 -1.0 0.0
  outer loop
    vertex 12.999999999999998 -35.0 -1.0370180000000002
    vertex 63.00000000000001 -35.0 2.9629819999999993
    vertex 12.999999999999998 -35.0 2.9629819999999993
  endloop
endfacet
facet normal -0.0 -0.0 -1.0
  outer loop
    vertex 63.00000000000001 -35.0 2.9629819999999993
    vertex 12.999999999999998 -39.0 2.9629819999999993
    vertex 12.999999999999998 -35.0 2.9629819999999993
  endloop
endfacet
facet normal -0.0 -0.0 -1.0
  outer loop
    vertex 12.999999999999998 -39.0 2.9629819999999993
    vertex 63.00000000000001 -35.0 2.9629819999999993
    vertex 63.00000000000001 -39.0 2.9629819999999993
  endloop
endfacet
facet normal 0.0 1.0 0.0
  outer loop
    vertex 12.999999999999998 -39.0 2.9629819999999993
    vertex 63.00000000000001 -39.0 -1.0370179999999998
    vertex 12.999999999999998 -39.0 -1.0370179999999998
  endloop
endfacet
facet normal 0.0 1.0 0.0
  outer loop
    vertex 63.00000000000001 -39.0 -1.0370179999999998
    vertex 12.999999999999998 -39.0 2.9629819999999993
    vertex 63.00000000000001 -39.0 2.9629819999999993
  endloop
endfacet
facet normal 0.0 0.0 -1.0
  outer loop
    vertex 63.00000000000001 -39.0 -1.0370179999999998
    vertex 12.999999999999998 -40.0 -1.0370179999999998
    vertex 12.999999999999998 -39.0 -1.0370179999999998
  endloop
endfacet
facet normal 0.0 0.0 -1.0
  outer loop
    vertex 12.999999999999998 -40.0 -1.0370179999999998
    vertex 63.00000000000001 -39.0 -1.0370179999999998
    vertex 63.00000000000001 -40.0 -1.0370179999999998
  endloop
endfacet
facet normal 0.0 0.0 1.0
  outer loop
    vertex 63.00000000000001 -40.0 3.962982
    vertex 12.999999999999998 -34.0 3.962982
    vertex 12.999999999999998 -40.0 3.962982
  endloop
endfacet
facet normal 0.0 0.0 1.0
  outer loop
    vertex 12.999999999999998 -34.0 3.962982
    vertex 63.00000000000001 -40.0 3.962982
    vertex 63.00000000000001 -34.0 3.962982
  endloop
endfacet
endsolid switchbox
