solid switchbox
facet normal 0.0 1.0 0.0
  outer loop
    vertex 6.999999999999998 -5.0 3.962982
    vertex 7.999999999999998 -5.0 -1.0370180000000002
    vertex 6.999999999999998 -5.0 -1.0370180000000002
  endloop
endfacet
facet normal 0.0 1.0 0.0
  outer loop
    vertex 7.999999999999998 -5.0 -1.0370180000000002
    vertex 6.999999999999998 -5.0 3.962982
    vertex 7.999999999999998 -5.0 2.962982
  endloop
endfacet
facet normal 0.0 1.0 0.0
  outer loop
    vertex 7.999999999999998 -5.0 2.962982
    vertex 6.999999999999998 -5.0 3.962982
    vertex 12.0 -5.0 2.962982
  endloop
endfacet
facet normal 0.0 1.0 0.0
  outer loop
    vertex 12.0 -5.0 2.962982
    vertex 12.999999999999998 -5.0 -1.0370179999999998
    vertex 12.0 -5.0 -1.0370179999999998
  endloop
endfacet
facet normal 0.0 1.0 0.0
  outer loop
    vertex 12.999999999999998 -5.0 -1.0370179999999998
    vertex 12.0 -5.0 2.962982
    vertex 12.999999999999998 -5.0 3.962982
  endloop
endfacet
facet normal 0.0 1.0 0.0
  outer loop
    vertex 12.999999999999998 -5.0 3.962982
    vertex 12.0 -5.0 2.962982
    vertex 6.999999999999998 -5.0 3.962982
  endloop
endfacet
facet normal 0.0 -1.0 0.0
  outer loop
    vertex 12.999999999999998 -40.0 -1.0370179999999998
    vertex 6.999999999999998 -40.0 3.962982
    vertex 6.999999999999998 -40.0 -1.0370180000000002
  endloop
endfacet
facet normal 0.0 -1.0 0.0
  outer loop
    vertex 6.999999999999998 -40.0 3.962982
    vertex 12.999999999999998 -40.0 -1.0370179999999998
    vertex 12.999999999999998 -40.0 3.962982
  endloop
endfacet
facet normal 0.0 0.0 1.0
  outer loop
    vertex 12.999999999999998 -40.0 3.962982
    vertex 6.999999999999998 -5.0 3.962982
    vertex 6.999999999999998 -40.0 3.962982
  endloop
endfacet
facet normal 0.0 0.0 1.0
  outer loop
    vertex 6.999999999999998 -5.0 3.962982
    vertex 12.999999999999998 -40.0 3.962982
    vertex 12.999999999999998 -5.0 3.962982
  endloop
endfacet
facet normal -1.0 -0.0 -0.0
  outer loop
    vertex 6.999999999999998 -5.0 3.962982
    vertex 6.999999999999998 -40.0 -1.0370180000000002
    vertex 6.999999999999998 -40.0 3.962982
  endloop
endfacet
facet normal -1.0 -0.0 -0.0
  outer loop
    vertex 6.999999999999998 -40.0 -1.0370180000000002
    vertex 6.999999999999998 -5.0 3.962982
    vertex 6.999999999999998 -5.0 -1.0370180000000002
  endloop
endfacet
facet normal 0.0 0.0 -1.0
  outer loop
    vertex 12.0 -5.0 2.962982
    vertex 8.002658999999996 -39.0 2.962982
    vertex 7.999999999999998 -5.0 2.962982
  endloop
endfacet
facet normal 0.0 0.0 -1.0
  outer loop
    vertex 8.002658999999996 -39.0 2.962982
    vertex 12.0 -5.0 2.962982
    vertex 12.0 -35.0 2.962982
  endloop
endfacet
facet normal 0.0 0.0 -1.0
  outer loop
    vertex 12.0 -35.0 2.962982
    vertex 12.999999999999998 -39.0 2.962982
    vertex 8.002658999999996 -39.0 2.962982
  endloop
endfacet
facet normal 0.0 0.0 -1.0
  outer loop
    vertex 12.999999999999998 -39.0 2.962982
    vertex 12.0 -35.0 2.962982
    vertex 12.999999999999998 -35.0 2.962982
  endloop
endfacet
facet normal 1.0 0.0 0.0
  outer loop
    vertex 12.999999999999998 -5.0 -1.0370179999999998
    vertex 12.999999999999998 -35.0 2.962982
    vertex 12.999999999999998 -35.0 -1.0370180000000002
  endloop
endfacet
facet normal 1.0 0.0 0.0
  outer loop
    vertex 12.999999999999998 -39.0 -1.0370180000000002
    vertex 12.999999999999998 -40.0 3.962982
    vertex 12.999999999999998 -40.0 -1.0370179999999998
  endloop
endfacet
facet normal 1.0 0.0 0.0
  outer loop
    vertex 12.999999999999998 -40.0 3.962982
    vertex 12.999999999999998 -39.0 -1.0370180000000002
    vertex 12.999999999999998 -39.0 2.962982
  endloop
endfacet
facet normal 1.0 0.0 0.0
  outer loop
    vertex 12.999999999999998 -40.0 3.962982
    vertex 12.999999999999998 -39.0 2.962982
    vertex 12.999999999999998 -5.0 3.962982
  endloop
endfacet
facet normal 1.0 0.0 0.0
  outer loop
    vertex 12.999999999999998 -5.0 3.962982
    vertex 12.999999999999998 -39.0 2.962982
    vertex 12.999999999999998 -35.0 2.962982
  endloop
endfacet
facet normal 1.0 0.0 0.0
  outer loop
    vertex 12.999999999999998 -5.0 3.962982
    vertex 12.999999999999998 -35.0 2.962982
    vertex 12.999999999999998 -5.0 -1.0370179999999998
  endloop
endfacet
facet normal 0.0 -1.0 0.0
  outer loop
    vertex 12.999999999999998 -35.0 2.962982
    vertex 12.0 -35.0 -1.0370180000000002
    vertex 12.999999999999998 -35.0 -1.0370180000000002
  endloop
endfacet
facet normal 0.0 -1.0 0.0
  outer loop
    vertex 12.0 -35.0 -1.0370180000000002
    vertex 12.999999999999998 -35.0 2.962982
    vertex 12.0 -35.0 2.962982
  endloop
endfacet
facet normal 0.0 1.0 0.0
  outer loop
    vertex 8.002658999999996 -39.0 -1.0370179999999993
    vertex 12.999999999999998 -39.0 2.962982
    vertex 12.999999999999998 -39.0 -1.0370180000000002
  endloop
endfacet
facet normal 0.0 1.0 0.0
  outer loop
    vertex 12.999999999999998 -39.0 2.962982
    vertex 8.002658999999996 -39.0 -1.0370179999999993
    vertex 8.002658999999996 -39.0 2.962982
  endloop
endfacet
facet normal 0.0 1.0071308866242489e-17 -1.0
  outer loop
    vertex 12.999999999999998 -5.0 -1.0370179999999998
    vertex 12.0 -35.0 -1.0370180000000002
    vertex 12.0 -5.0 -1.0370179999999998
  endloop
endfacet
facet normal 0.0 1.0071308866242489e-17 -1.0
  outer loop
    vertex 12.0 -35.0 -1.0370180000000002
    vertex 12.999999999999998 -5.0 -1.0370179999999998
    vertex 12.999999999999998 -35.0 -1.0370180000000002
  endloop
endfacet
facet normal -1.0 2.0142617732484978e-17 2.349972068789914e-16
  outer loop
    vertex 12.0 -5.0 2.962982
    vertex 12.0 -35.0 -1.0370180000000002
    vertex 12.0 -35.0 2.962982
  endloop
endfacet
facet normal -1.0 2.0142617732484978e-17 2.349972068789914e-16
  outer loop
    vertex 12.0 -35.0 -1.0370180000000002
    vertex 12.0 -5.0 2.962982
    vertex 12.0 -5.0 -1.0370179999999998
  endloop
endfacet
facet normal 0.999999997675779 6.817948702097203e-05 -1.6144874933744133e-20
  outer loop
    vertex 7.999999999999998 -5.0 -1.0370180000000002
    vertex 8.002658999999996 -39.0 2.962982
    vertex 8.002658999999996 -39.0 -1.0370179999999993
  endloop
endfacet
facet normal 0.999999997675779 6.817948702097203e-05 -1.6144874933744133e-20
  outer loop
    vertex 8.002658999999996 -39.0 2.962982
    vertex 7.999999999999998 -5.0 -1.0370180000000002
    vertex 7.999999999999998 -5.0 2.962982
  endloop
endfacet
facet normal -1.4569484604590977e-17 -8.154794332997707e-18 -1.0
  outer loop
    vertex 7.999999999999998 -5.0 -1.0370180000000002
    vertex 6.999999999999998 -40.0 -1.0370180000000002
    vertex 6.999999999999998 -5.0 -1.0370180000000002
  endloop
endfacet
facet normal -1.4569484604590977e-17 -8.154794332997707e-18 -1.0
  outer loop
    vertex 6.999999999999998 -40.0 -1.0370180000000002
    vertex 7.999999999999998 -5.0 -1.0370180000000002
    vertex 8.002658999999996 -39.0 -1.0370179999999993
  endloop
endfacet
facet normal -1.4569484604590977e-17 -8.154794332997707e-18 -1.0
  outer loop
    vertex 6.999999999999998 -40.0 -1.0370180000000002
    vertex 8.002658999999996 -39.0 -1.0370179999999993
    vertex 12.999999999999998 -40.0 -1.0370179999999998
  endloop
endfacet
facet normal -1.4569484604590977e-17 -8.154794332997707e-18 -1.0
  outer loop
    vertex 12.999999999999998 -40.0 -1.0370179999999998
    vertex 8.002658999999996 -39.0 -1.0370179999999993
    vertex 12.999999999999998 -39.0 -1.0370180000000002
  endloop
endfacet
endsolid switchbox
